<?xml version="1.0" encoding="UTF-8" standalone="no"?>
<!DOCTYPE svg PUBLIC "-//W3C//DTD SVG 1.1//EN"
 "http://www.w3.org/Graphics/SVG/1.1/DTD/svg11.dtd">
<!-- Generated by graphviz version 8.0.1 (20230327.1645)
 -->
<!-- Title: Tree Pages: 1 -->
<svg width="1111pt" height="581pt"
 viewBox="0.00 0.00 1110.50 581.00" xmlns="http://www.w3.org/2000/svg" xmlns:xlink="http://www.w3.org/1999/xlink">
<g id="graph0" class="graph" transform="scale(1 1) rotate(0) translate(4 577)">
<title>Tree</title>
<polygon fill="white" stroke="none" points="-4,4 -4,-577 1106.5,-577 1106.5,4 -4,4"/>
<!-- 0 -->
<g id="node1" class="node">
<title>0</title>
<polygon fill="none" stroke="black" points="906,-573 776,-573 776,-505 906,-505 906,-573"/>
<text text-anchor="middle" x="841" y="-557.8" font-family="Helvetica,sans-Serif" font-size="14.00">不错 &lt;= 0.5</text>
<text text-anchor="middle" x="841" y="-542.8" font-family="Helvetica,sans-Serif" font-size="14.00">gini = 0.496</text>
<text text-anchor="middle" x="841" y="-527.8" font-family="Helvetica,sans-Serif" font-size="14.00">samples = 509</text>
<text text-anchor="middle" x="841" y="-512.8" font-family="Helvetica,sans-Serif" font-size="14.00">value = [231, 278]</text>
</g>
<!-- 1 -->
<g id="node2" class="node">
<title>1</title>
<polygon fill="none" stroke="black" points="787,-469 657,-469 657,-401 787,-401 787,-469"/>
<text text-anchor="middle" x="722" y="-453.8" font-family="Helvetica,sans-Serif" font-size="14.00">满意 &lt;= 0.5</text>
<text text-anchor="middle" x="722" y="-438.8" font-family="Helvetica,sans-Serif" font-size="14.00">gini = 0.494</text>
<text text-anchor="middle" x="722" y="-423.8" font-family="Helvetica,sans-Serif" font-size="14.00">samples = 408</text>
<text text-anchor="middle" x="722" y="-408.8" font-family="Helvetica,sans-Serif" font-size="14.00">value = [226, 182]</text>
</g>
<!-- 0&#45;&gt;1 -->
<g id="edge1" class="edge">
<title>0&#45;&gt;1</title>
<path fill="none" stroke="black" d="M802.03,-504.6C791.56,-495.62 780.11,-485.81 769.23,-476.49"/>
<polygon fill="black" stroke="black" points="771.92,-473.32 762.05,-469.47 767.37,-478.64 771.92,-473.32"/>
<text text-anchor="middle" x="762.97" y="-490.7" font-family="Helvetica,sans-Serif" font-size="14.00">True</text>
</g>
<!-- 20 -->
<g id="node21" class="node">
<title>20</title>
<polygon fill="none" stroke="black" points="987.5,-469 876.5,-469 876.5,-401 987.5,-401 987.5,-469"/>
<text text-anchor="middle" x="932" y="-453.8" font-family="Helvetica,sans-Serif" font-size="14.00">备用 &lt;= 0.5</text>
<text text-anchor="middle" x="932" y="-438.8" font-family="Helvetica,sans-Serif" font-size="14.00">gini = 0.094</text>
<text text-anchor="middle" x="932" y="-423.8" font-family="Helvetica,sans-Serif" font-size="14.00">samples = 101</text>
<text text-anchor="middle" x="932" y="-408.8" font-family="Helvetica,sans-Serif" font-size="14.00">value = [5, 96]</text>
</g>
<!-- 0&#45;&gt;20 -->
<g id="edge20" class="edge">
<title>0&#45;&gt;20</title>
<path fill="none" stroke="black" d="M870.8,-504.6C878.5,-495.97 886.88,-486.58 894.9,-477.58"/>
<polygon fill="black" stroke="black" points="897.09,-480.27 901.14,-470.47 891.87,-475.61 897.09,-480.27"/>
<text text-anchor="middle" x="903.56" y="-490.73" font-family="Helvetica,sans-Serif" font-size="14.00">False</text>
</g>
<!-- 2 -->
<g id="node3" class="node">
<title>2</title>
<polygon fill="none" stroke="black" points="607,-365 477,-365 477,-297 607,-297 607,-365"/>
<text text-anchor="middle" x="542" y="-349.8" font-family="Helvetica,sans-Serif" font-size="14.00">好看 &lt;= 0.5</text>
<text text-anchor="middle" x="542" y="-334.8" font-family="Helvetica,sans-Serif" font-size="14.00">gini = 0.483</text>
<text text-anchor="middle" x="542" y="-319.8" font-family="Helvetica,sans-Serif" font-size="14.00">samples = 373</text>
<text text-anchor="middle" x="542" y="-304.8" font-family="Helvetica,sans-Serif" font-size="14.00">value = [221, 152]</text>
</g>
<!-- 1&#45;&gt;2 -->
<g id="edge2" class="edge">
<title>1&#45;&gt;2</title>
<path fill="none" stroke="black" d="M663.06,-400.6C646.28,-391.09 627.85,-380.65 610.55,-370.85"/>
<polygon fill="black" stroke="black" points="612.5,-367.36 602.07,-365.47 609.05,-373.45 612.5,-367.36"/>
</g>
<!-- 13 -->
<g id="node14" class="node">
<title>13</title>
<polygon fill="none" stroke="black" points="774.5,-365 669.5,-365 669.5,-297 774.5,-297 774.5,-365"/>
<text text-anchor="middle" x="722" y="-349.8" font-family="Helvetica,sans-Serif" font-size="14.00">总体 &lt;= 0.5</text>
<text text-anchor="middle" x="722" y="-334.8" font-family="Helvetica,sans-Serif" font-size="14.00">gini = 0.245</text>
<text text-anchor="middle" x="722" y="-319.8" font-family="Helvetica,sans-Serif" font-size="14.00">samples = 35</text>
<text text-anchor="middle" x="722" y="-304.8" font-family="Helvetica,sans-Serif" font-size="14.00">value = [5, 30]</text>
</g>
<!-- 1&#45;&gt;13 -->
<g id="edge13" class="edge">
<title>1&#45;&gt;13</title>
<path fill="none" stroke="black" d="M722,-400.6C722,-392.85 722,-384.49 722,-376.35"/>
<polygon fill="black" stroke="black" points="725.5,-376.47 722,-366.47 718.5,-376.47 725.5,-376.47"/>
</g>
<!-- 3 -->
<g id="node4" class="node">
<title>3</title>
<polygon fill="none" stroke="black" points="398,-261 268,-261 268,-193 398,-193 398,-261"/>
<text text-anchor="middle" x="333" y="-245.8" font-family="Helvetica,sans-Serif" font-size="14.00">颜色 &lt;= 0.5</text>
<text text-anchor="middle" x="333" y="-230.8" font-family="Helvetica,sans-Serif" font-size="14.00">gini = 0.468</text>
<text text-anchor="middle" x="333" y="-215.8" font-family="Helvetica,sans-Serif" font-size="14.00">samples = 351</text>
<text text-anchor="middle" x="333" y="-200.8" font-family="Helvetica,sans-Serif" font-size="14.00">value = [220, 131]</text>
</g>
<!-- 2&#45;&gt;3 -->
<g id="edge3" class="edge">
<title>2&#45;&gt;3</title>
<path fill="none" stroke="black" d="M476.73,-298.15C455.03,-287.56 430.69,-275.68 408.29,-264.75"/>
<polygon fill="black" stroke="black" points="410.01,-261.2 399.49,-259.96 406.94,-267.49 410.01,-261.2"/>
</g>
<!-- 10 -->
<g id="node11" class="node">
<title>10</title>
<polygon fill="none" stroke="black" points="594.5,-261 489.5,-261 489.5,-193 594.5,-193 594.5,-261"/>
<text text-anchor="middle" x="542" y="-245.8" font-family="Helvetica,sans-Serif" font-size="14.00">碰撞 &lt;= 0.5</text>
<text text-anchor="middle" x="542" y="-230.8" font-family="Helvetica,sans-Serif" font-size="14.00">gini = 0.087</text>
<text text-anchor="middle" x="542" y="-215.8" font-family="Helvetica,sans-Serif" font-size="14.00">samples = 22</text>
<text text-anchor="middle" x="542" y="-200.8" font-family="Helvetica,sans-Serif" font-size="14.00">value = [1, 21]</text>
</g>
<!-- 2&#45;&gt;10 -->
<g id="edge10" class="edge">
<title>2&#45;&gt;10</title>
<path fill="none" stroke="black" d="M542,-296.6C542,-288.85 542,-280.49 542,-272.35"/>
<polygon fill="black" stroke="black" points="545.5,-272.47 542,-262.47 538.5,-272.47 545.5,-272.47"/>
</g>
<!-- 4 -->
<g id="node5" class="node">
<title>4</title>
<polygon fill="none" stroke="black" points="262,-157 132,-157 132,-89 262,-89 262,-157"/>
<text text-anchor="middle" x="197" y="-141.8" font-family="Helvetica,sans-Serif" font-size="14.00">值得 &lt;= 0.5</text>
<text text-anchor="middle" x="197" y="-126.8" font-family="Helvetica,sans-Serif" font-size="14.00">gini = 0.452</text>
<text text-anchor="middle" x="197" y="-111.8" font-family="Helvetica,sans-Serif" font-size="14.00">samples = 334</text>
<text text-anchor="middle" x="197" y="-96.8" font-family="Helvetica,sans-Serif" font-size="14.00">value = [219, 115]</text>
</g>
<!-- 3&#45;&gt;4 -->
<g id="edge4" class="edge">
<title>3&#45;&gt;4</title>
<path fill="none" stroke="black" d="M288.47,-192.6C276.26,-183.44 262.9,-173.42 250.25,-163.94"/>
<polygon fill="black" stroke="black" points="252.73,-160.67 242.63,-157.47 248.53,-166.27 252.73,-160.67"/>
</g>
<!-- 7 -->
<g id="node8" class="node">
<title>7</title>
<polygon fill="none" stroke="black" points="385.5,-157 280.5,-157 280.5,-89 385.5,-89 385.5,-157"/>
<text text-anchor="middle" x="333" y="-141.8" font-family="Helvetica,sans-Serif" font-size="14.00">遵守 &lt;= 0.5</text>
<text text-anchor="middle" x="333" y="-126.8" font-family="Helvetica,sans-Serif" font-size="14.00">gini = 0.111</text>
<text text-anchor="middle" x="333" y="-111.8" font-family="Helvetica,sans-Serif" font-size="14.00">samples = 17</text>
<text text-anchor="middle" x="333" y="-96.8" font-family="Helvetica,sans-Serif" font-size="14.00">value = [1, 16]</text>
</g>
<!-- 3&#45;&gt;7 -->
<g id="edge7" class="edge">
<title>3&#45;&gt;7</title>
<path fill="none" stroke="black" d="M333,-192.6C333,-184.85 333,-176.49 333,-168.35"/>
<polygon fill="black" stroke="black" points="336.5,-168.47 333,-158.47 329.5,-168.47 336.5,-168.47"/>
</g>
<!-- 5 -->
<g id="node6" class="node">
<title>5</title>
<polygon fill="none" stroke="black" points="130,-53 0,-53 0,0 130,0 130,-53"/>
<text text-anchor="middle" x="65" y="-37.8" font-family="Helvetica,sans-Serif" font-size="14.00">gini = 0.432</text>
<text text-anchor="middle" x="65" y="-22.8" font-family="Helvetica,sans-Serif" font-size="14.00">samples = 317</text>
<text text-anchor="middle" x="65" y="-7.8" font-family="Helvetica,sans-Serif" font-size="14.00">value = [217, 100]</text>
</g>
<!-- 4&#45;&gt;5 -->
<g id="edge5" class="edge">
<title>4&#45;&gt;5</title>
<path fill="none" stroke="black" d="M150.46,-88.68C137.31,-79.27 123.04,-69.05 109.98,-59.7"/>
<polygon fill="black" stroke="black" points="112.34,-56.37 102.17,-53.39 108.26,-62.06 112.34,-56.37"/>
</g>
<!-- 6 -->
<g id="node7" class="node">
<title>6</title>
<polygon fill="none" stroke="black" points="253.5,-53 148.5,-53 148.5,0 253.5,0 253.5,-53"/>
<text text-anchor="middle" x="201" y="-37.8" font-family="Helvetica,sans-Serif" font-size="14.00">gini = 0.208</text>
<text text-anchor="middle" x="201" y="-22.8" font-family="Helvetica,sans-Serif" font-size="14.00">samples = 17</text>
<text text-anchor="middle" x="201" y="-7.8" font-family="Helvetica,sans-Serif" font-size="14.00">value = [2, 15]</text>
</g>
<!-- 4&#45;&gt;6 -->
<g id="edge6" class="edge">
<title>4&#45;&gt;6</title>
<path fill="none" stroke="black" d="M198.41,-88.68C198.74,-80.81 199.1,-72.37 199.44,-64.35"/>
<polygon fill="black" stroke="black" points="202.98,-64.53 199.9,-54.39 195.98,-64.24 202.98,-64.53"/>
</g>
<!-- 8 -->
<g id="node9" class="node">
<title>8</title>
<polygon fill="none" stroke="black" points="382.5,-53 277.5,-53 277.5,0 382.5,0 382.5,-53"/>
<text text-anchor="middle" x="330" y="-37.8" font-family="Helvetica,sans-Serif" font-size="14.00">gini = 0.0</text>
<text text-anchor="middle" x="330" y="-22.8" font-family="Helvetica,sans-Serif" font-size="14.00">samples = 16</text>
<text text-anchor="middle" x="330" y="-7.8" font-family="Helvetica,sans-Serif" font-size="14.00">value = [0, 16]</text>
</g>
<!-- 7&#45;&gt;8 -->
<g id="edge8" class="edge">
<title>7&#45;&gt;8</title>
<path fill="none" stroke="black" d="M331.94,-88.68C331.69,-80.81 331.42,-72.37 331.17,-64.35"/>
<polygon fill="black" stroke="black" points="334.64,-64.28 330.82,-54.39 327.64,-64.5 334.64,-64.28"/>
</g>
<!-- 9 -->
<g id="node10" class="node">
<title>9</title>
<polygon fill="none" stroke="black" points="497.5,-53 400.5,-53 400.5,0 497.5,0 497.5,-53"/>
<text text-anchor="middle" x="449" y="-37.8" font-family="Helvetica,sans-Serif" font-size="14.00">gini = 0.0</text>
<text text-anchor="middle" x="449" y="-22.8" font-family="Helvetica,sans-Serif" font-size="14.00">samples = 1</text>
<text text-anchor="middle" x="449" y="-7.8" font-family="Helvetica,sans-Serif" font-size="14.00">value = [1, 0]</text>
</g>
<!-- 7&#45;&gt;9 -->
<g id="edge9" class="edge">
<title>7&#45;&gt;9</title>
<path fill="none" stroke="black" d="M373.9,-88.68C385.23,-79.45 397.52,-69.44 408.81,-60.24"/>
<polygon fill="black" stroke="black" points="410.67,-62.42 416.22,-53.39 406.25,-57 410.67,-62.42"/>
</g>
<!-- 11 -->
<g id="node12" class="node">
<title>11</title>
<polygon fill="none" stroke="black" points="508.5,-149.5 403.5,-149.5 403.5,-96.5 508.5,-96.5 508.5,-149.5"/>
<text text-anchor="middle" x="456" y="-134.3" font-family="Helvetica,sans-Serif" font-size="14.00">gini = 0.0</text>
<text text-anchor="middle" x="456" y="-119.3" font-family="Helvetica,sans-Serif" font-size="14.00">samples = 21</text>
<text text-anchor="middle" x="456" y="-104.3" font-family="Helvetica,sans-Serif" font-size="14.00">value = [0, 21]</text>
</g>
<!-- 10&#45;&gt;11 -->
<g id="edge11" class="edge">
<title>10&#45;&gt;11</title>
<path fill="none" stroke="black" d="M513.84,-192.6C504.47,-181.49 494.03,-169.11 484.63,-157.95"/>
<polygon fill="black" stroke="black" points="486.8,-156.1 477.67,-150.71 481.44,-160.61 486.8,-156.1"/>
</g>
<!-- 12 -->
<g id="node13" class="node">
<title>12</title>
<polygon fill="none" stroke="black" points="623.5,-149.5 526.5,-149.5 526.5,-96.5 623.5,-96.5 623.5,-149.5"/>
<text text-anchor="middle" x="575" y="-134.3" font-family="Helvetica,sans-Serif" font-size="14.00">gini = 0.0</text>
<text text-anchor="middle" x="575" y="-119.3" font-family="Helvetica,sans-Serif" font-size="14.00">samples = 1</text>
<text text-anchor="middle" x="575" y="-104.3" font-family="Helvetica,sans-Serif" font-size="14.00">value = [1, 0]</text>
</g>
<!-- 10&#45;&gt;12 -->
<g id="edge12" class="edge">
<title>10&#45;&gt;12</title>
<path fill="none" stroke="black" d="M552.81,-192.6C556.19,-182.14 559.94,-170.56 563.37,-159.93"/>
<polygon fill="black" stroke="black" points="566.94,-161.3 566.68,-150.71 560.28,-159.14 566.94,-161.3"/>
</g>
<!-- 14 -->
<g id="node15" class="node">
<title>14</title>
<polygon fill="none" stroke="black" points="746.5,-261 641.5,-261 641.5,-193 746.5,-193 746.5,-261"/>
<text text-anchor="middle" x="694" y="-245.8" font-family="Helvetica,sans-Serif" font-size="14.00">刚刚 &lt;= 0.5</text>
<text text-anchor="middle" x="694" y="-230.8" font-family="Helvetica,sans-Serif" font-size="14.00">gini = 0.165</text>
<text text-anchor="middle" x="694" y="-215.8" font-family="Helvetica,sans-Serif" font-size="14.00">samples = 33</text>
<text text-anchor="middle" x="694" y="-200.8" font-family="Helvetica,sans-Serif" font-size="14.00">value = [3, 30]</text>
</g>
<!-- 13&#45;&gt;14 -->
<g id="edge14" class="edge">
<title>13&#45;&gt;14</title>
<path fill="none" stroke="black" d="M712.83,-296.6C710.68,-288.76 708.36,-280.29 706.1,-272.07"/>
<polygon fill="black" stroke="black" points="709.21,-271.19 703.19,-262.47 702.46,-273.04 709.21,-271.19"/>
</g>
<!-- 19 -->
<g id="node20" class="node">
<title>19</title>
<polygon fill="none" stroke="black" points="861.5,-253.5 764.5,-253.5 764.5,-200.5 861.5,-200.5 861.5,-253.5"/>
<text text-anchor="middle" x="813" y="-238.3" font-family="Helvetica,sans-Serif" font-size="14.00">gini = 0.0</text>
<text text-anchor="middle" x="813" y="-223.3" font-family="Helvetica,sans-Serif" font-size="14.00">samples = 2</text>
<text text-anchor="middle" x="813" y="-208.3" font-family="Helvetica,sans-Serif" font-size="14.00">value = [2, 0]</text>
</g>
<!-- 13&#45;&gt;19 -->
<g id="edge19" class="edge">
<title>13&#45;&gt;19</title>
<path fill="none" stroke="black" d="M751.8,-296.6C761.81,-285.38 772.97,-272.86 783,-261.63"/>
<polygon fill="black" stroke="black" points="785.02,-264.5 789.07,-254.71 779.8,-259.84 785.02,-264.5"/>
</g>
<!-- 15 -->
<g id="node16" class="node">
<title>15</title>
<polygon fill="none" stroke="black" points="746.5,-157 641.5,-157 641.5,-89 746.5,-89 746.5,-157"/>
<text text-anchor="middle" x="694" y="-141.8" font-family="Helvetica,sans-Serif" font-size="14.00">弄伤 &lt;= 0.5</text>
<text text-anchor="middle" x="694" y="-126.8" font-family="Helvetica,sans-Serif" font-size="14.00">gini = 0.117</text>
<text text-anchor="middle" x="694" y="-111.8" font-family="Helvetica,sans-Serif" font-size="14.00">samples = 32</text>
<text text-anchor="middle" x="694" y="-96.8" font-family="Helvetica,sans-Serif" font-size="14.00">value = [2, 30]</text>
</g>
<!-- 14&#45;&gt;15 -->
<g id="edge15" class="edge">
<title>14&#45;&gt;15</title>
<path fill="none" stroke="black" d="M694,-192.6C694,-184.85 694,-176.49 694,-168.35"/>
<polygon fill="black" stroke="black" points="697.5,-168.47 694,-158.47 690.5,-168.47 697.5,-168.47"/>
</g>
<!-- 18 -->
<g id="node19" class="node">
<title>18</title>
<polygon fill="none" stroke="black" points="861.5,-149.5 764.5,-149.5 764.5,-96.5 861.5,-96.5 861.5,-149.5"/>
<text text-anchor="middle" x="813" y="-134.3" font-family="Helvetica,sans-Serif" font-size="14.00">gini = 0.0</text>
<text text-anchor="middle" x="813" y="-119.3" font-family="Helvetica,sans-Serif" font-size="14.00">samples = 1</text>
<text text-anchor="middle" x="813" y="-104.3" font-family="Helvetica,sans-Serif" font-size="14.00">value = [1, 0]</text>
</g>
<!-- 14&#45;&gt;18 -->
<g id="edge18" class="edge">
<title>14&#45;&gt;18</title>
<path fill="none" stroke="black" d="M732.97,-192.6C746.44,-181.05 761.51,-168.13 774.91,-156.65"/>
<polygon fill="black" stroke="black" points="776.69,-158.87 782.01,-149.71 772.14,-153.56 776.69,-158.87"/>
</g>
<!-- 16 -->
<g id="node17" class="node">
<title>16</title>
<polygon fill="none" stroke="black" points="657.5,-53 552.5,-53 552.5,0 657.5,0 657.5,-53"/>
<text text-anchor="middle" x="605" y="-37.8" font-family="Helvetica,sans-Serif" font-size="14.00">gini = 0.062</text>
<text text-anchor="middle" x="605" y="-22.8" font-family="Helvetica,sans-Serif" font-size="14.00">samples = 31</text>
<text text-anchor="middle" x="605" y="-7.8" font-family="Helvetica,sans-Serif" font-size="14.00">value = [1, 30]</text>
</g>
<!-- 15&#45;&gt;16 -->
<g id="edge16" class="edge">
<title>15&#45;&gt;16</title>
<path fill="none" stroke="black" d="M662.62,-88.68C654.27,-79.81 645.24,-70.23 636.86,-61.33"/>
<polygon fill="black" stroke="black" points="639.79,-59.27 630.39,-54.39 634.69,-64.07 639.79,-59.27"/>
</g>
<!-- 17 -->
<g id="node18" class="node">
<title>17</title>
<polygon fill="none" stroke="black" points="772.5,-53 675.5,-53 675.5,0 772.5,0 772.5,-53"/>
<text text-anchor="middle" x="724" y="-37.8" font-family="Helvetica,sans-Serif" font-size="14.00">gini = 0.0</text>
<text text-anchor="middle" x="724" y="-22.8" font-family="Helvetica,sans-Serif" font-size="14.00">samples = 1</text>
<text text-anchor="middle" x="724" y="-7.8" font-family="Helvetica,sans-Serif" font-size="14.00">value = [1, 0]</text>
</g>
<!-- 15&#45;&gt;17 -->
<g id="edge17" class="edge">
<title>15&#45;&gt;17</title>
<path fill="none" stroke="black" d="M704.58,-88.68C707.13,-80.63 709.88,-71.98 712.48,-63.8"/>
<polygon fill="black" stroke="black" points="716.09,-64.98 715.78,-54.39 709.42,-62.87 716.09,-64.98"/>
</g>
<!-- 21 -->
<g id="node22" class="node">
<title>21</title>
<polygon fill="none" stroke="black" points="987.5,-365 876.5,-365 876.5,-297 987.5,-297 987.5,-365"/>
<text text-anchor="middle" x="932" y="-349.8" font-family="Helvetica,sans-Serif" font-size="14.00">磕损 &lt;= 0.5</text>
<text text-anchor="middle" x="932" y="-334.8" font-family="Helvetica,sans-Serif" font-size="14.00">gini = 0.077</text>
<text text-anchor="middle" x="932" y="-319.8" font-family="Helvetica,sans-Serif" font-size="14.00">samples = 100</text>
<text text-anchor="middle" x="932" y="-304.8" font-family="Helvetica,sans-Serif" font-size="14.00">value = [4, 96]</text>
</g>
<!-- 20&#45;&gt;21 -->
<g id="edge21" class="edge">
<title>20&#45;&gt;21</title>
<path fill="none" stroke="black" d="M932,-400.6C932,-392.85 932,-384.49 932,-376.35"/>
<polygon fill="black" stroke="black" points="935.5,-376.47 932,-366.47 928.5,-376.47 935.5,-376.47"/>
</g>
<!-- 28 -->
<g id="node29" class="node">
<title>28</title>
<polygon fill="none" stroke="black" points="1102.5,-357.5 1005.5,-357.5 1005.5,-304.5 1102.5,-304.5 1102.5,-357.5"/>
<text text-anchor="middle" x="1054" y="-342.3" font-family="Helvetica,sans-Serif" font-size="14.00">gini = 0.0</text>
<text text-anchor="middle" x="1054" y="-327.3" font-family="Helvetica,sans-Serif" font-size="14.00">samples = 1</text>
<text text-anchor="middle" x="1054" y="-312.3" font-family="Helvetica,sans-Serif" font-size="14.00">value = [1, 0]</text>
</g>
<!-- 20&#45;&gt;28 -->
<g id="edge28" class="edge">
<title>20&#45;&gt;28</title>
<path fill="none" stroke="black" d="M971.95,-400.6C985.76,-389.05 1001.21,-376.13 1014.95,-364.65"/>
<polygon fill="black" stroke="black" points="1016.83,-366.81 1022.25,-357.71 1012.34,-361.44 1016.83,-366.81"/>
</g>
<!-- 22 -->
<g id="node23" class="node">
<title>22</title>
<polygon fill="none" stroke="black" points="984.5,-261 879.5,-261 879.5,-193 984.5,-193 984.5,-261"/>
<text text-anchor="middle" x="932" y="-245.8" font-family="Helvetica,sans-Serif" font-size="14.00">扣要 &lt;= 0.5</text>
<text text-anchor="middle" x="932" y="-230.8" font-family="Helvetica,sans-Serif" font-size="14.00">gini = 0.059</text>
<text text-anchor="middle" x="932" y="-215.8" font-family="Helvetica,sans-Serif" font-size="14.00">samples = 99</text>
<text text-anchor="middle" x="932" y="-200.8" font-family="Helvetica,sans-Serif" font-size="14.00">value = [3, 96]</text>
</g>
<!-- 21&#45;&gt;22 -->
<g id="edge22" class="edge">
<title>21&#45;&gt;22</title>
<path fill="none" stroke="black" d="M932,-296.6C932,-288.85 932,-280.49 932,-272.35"/>
<polygon fill="black" stroke="black" points="935.5,-272.47 932,-262.47 928.5,-272.47 935.5,-272.47"/>
</g>
<!-- 27 -->
<g id="node28" class="node">
<title>27</title>
<polygon fill="none" stroke="black" points="1099.5,-253.5 1002.5,-253.5 1002.5,-200.5 1099.5,-200.5 1099.5,-253.5"/>
<text text-anchor="middle" x="1051" y="-238.3" font-family="Helvetica,sans-Serif" font-size="14.00">gini = 0.0</text>
<text text-anchor="middle" x="1051" y="-223.3" font-family="Helvetica,sans-Serif" font-size="14.00">samples = 1</text>
<text text-anchor="middle" x="1051" y="-208.3" font-family="Helvetica,sans-Serif" font-size="14.00">value = [1, 0]</text>
</g>
<!-- 21&#45;&gt;27 -->
<g id="edge27" class="edge">
<title>21&#45;&gt;27</title>
<path fill="none" stroke="black" d="M970.97,-296.6C984.44,-285.05 999.51,-272.13 1012.91,-260.65"/>
<polygon fill="black" stroke="black" points="1014.69,-262.87 1020.01,-253.71 1010.14,-257.56 1014.69,-262.87"/>
</g>
<!-- 23 -->
<g id="node24" class="node">
<title>23</title>
<polygon fill="none" stroke="black" points="984.5,-157 879.5,-157 879.5,-89 984.5,-89 984.5,-157"/>
<text text-anchor="middle" x="932" y="-141.8" font-family="Helvetica,sans-Serif" font-size="14.00">标准 &lt;= 0.5</text>
<text text-anchor="middle" x="932" y="-126.8" font-family="Helvetica,sans-Serif" font-size="14.00">gini = 0.04</text>
<text text-anchor="middle" x="932" y="-111.8" font-family="Helvetica,sans-Serif" font-size="14.00">samples = 98</text>
<text text-anchor="middle" x="932" y="-96.8" font-family="Helvetica,sans-Serif" font-size="14.00">value = [2, 96]</text>
</g>
<!-- 22&#45;&gt;23 -->
<g id="edge23" class="edge">
<title>22&#45;&gt;23</title>
<path fill="none" stroke="black" d="M932,-192.6C932,-184.85 932,-176.49 932,-168.35"/>
<polygon fill="black" stroke="black" points="935.5,-168.47 932,-158.47 928.5,-168.47 935.5,-168.47"/>
</g>
<!-- 26 -->
<g id="node27" class="node">
<title>26</title>
<polygon fill="none" stroke="black" points="1099.5,-149.5 1002.5,-149.5 1002.5,-96.5 1099.5,-96.5 1099.5,-149.5"/>
<text text-anchor="middle" x="1051" y="-134.3" font-family="Helvetica,sans-Serif" font-size="14.00">gini = 0.0</text>
<text text-anchor="middle" x="1051" y="-119.3" font-family="Helvetica,sans-Serif" font-size="14.00">samples = 1</text>
<text text-anchor="middle" x="1051" y="-104.3" font-family="Helvetica,sans-Serif" font-size="14.00">value = [1, 0]</text>
</g>
<!-- 22&#45;&gt;26 -->
<g id="edge26" class="edge">
<title>22&#45;&gt;26</title>
<path fill="none" stroke="black" d="M970.97,-192.6C984.44,-181.05 999.51,-168.13 1012.91,-156.65"/>
<polygon fill="black" stroke="black" points="1014.69,-158.87 1020.01,-149.71 1010.14,-153.56 1014.69,-158.87"/>
</g>
<!-- 24 -->
<g id="node25" class="node">
<title>24</title>
<polygon fill="none" stroke="black" points="954.5,-53 849.5,-53 849.5,0 954.5,0 954.5,-53"/>
<text text-anchor="middle" x="902" y="-37.8" font-family="Helvetica,sans-Serif" font-size="14.00">gini = 0.02</text>
<text text-anchor="middle" x="902" y="-22.8" font-family="Helvetica,sans-Serif" font-size="14.00">samples = 97</text>
<text text-anchor="middle" x="902" y="-7.8" font-family="Helvetica,sans-Serif" font-size="14.00">value = [1, 96]</text>
</g>
<!-- 23&#45;&gt;24 -->
<g id="edge24" class="edge">
<title>23&#45;&gt;24</title>
<path fill="none" stroke="black" d="M921.42,-88.68C918.87,-80.63 916.12,-71.98 913.52,-63.8"/>
<polygon fill="black" stroke="black" points="916.58,-62.87 910.22,-54.39 909.91,-64.98 916.58,-62.87"/>
</g>
<!-- 25 -->
<g id="node26" class="node">
<title>25</title>
<polygon fill="none" stroke="black" points="1069.5,-53 972.5,-53 972.5,0 1069.5,0 1069.5,-53"/>
<text text-anchor="middle" x="1021" y="-37.8" font-family="Helvetica,sans-Serif" font-size="14.00">gini = 0.0</text>
<text text-anchor="middle" x="1021" y="-22.8" font-family="Helvetica,sans-Serif" font-size="14.00">samples = 1</text>
<text text-anchor="middle" x="1021" y="-7.8" font-family="Helvetica,sans-Serif" font-size="14.00">value = [1, 0]</text>
</g>
<!-- 23&#45;&gt;25 -->
<g id="edge25" class="edge">
<title>23&#45;&gt;25</title>
<path fill="none" stroke="black" d="M963.38,-88.68C971.73,-79.81 980.76,-70.23 989.14,-61.33"/>
<polygon fill="black" stroke="black" points="991.31,-64.07 995.61,-54.39 986.21,-59.27 991.31,-64.07"/>
</g>
</g>
</svg>
